<svg xmlns="http://www.w3.org/2000/svg" viewBox="0 0 1200 1400"><defs><filter id="s"><feGaussianBlur stdDeviation="24"/></filter><radialGradient id="bg"><stop stop-color="#f5eee3"/><stop offset="1" stop-color="#d8c7af"/></radialGradient><linearGradient id="cup" x2="0" y2="1"><stop stop-color="#fff" stop-opacity=".82"/><stop offset="1" stop-color="#d6c4a7" stop-opacity=".7"/></linearGradient></defs><rect width="1200" height="1400" fill="url(#bg)"/><ellipse cx="600" cy="1170" rx="390" ry="95" fill="#7d6242" opacity=".22" filter="url(#s)"/><path d="M285 430h630l-68 670q-8 85-93 85H446q-85 0-93-85z" fill="url(#cup)" stroke="#fff" stroke-opacity=".8" stroke-width="8"/><ellipse cx="600" cy="430" rx="315" ry="100" fill="#fffdf6"/><ellipse cx="600" cy="445" rx="270" ry="72" fill="#efe2c7"/><g fill="#c7a36d"><circle cx="410" cy="425" r="22"/><circle cx="470" cy="458" r="17"/><circle cx="530" cy="415" r="25"/><circle cx="595" cy="452" r="18"/><circle cx="652" cy="414" r="22"/><circle cx="710" cy="460" r="24"/><circle cx="777" cy="422" r="18"/><circle cx="830" cy="452" r="13"/><circle cx="445" cy="397" r="12"/><circle cx="740" cy="394" r="15"/></g><path d="M355 655c160 55 330-55 490 0" fill="none" stroke="#fff" stroke-opacity=".55" stroke-width="10"/><g fill="#fff" opacity=".65"><circle cx="870" cy="565" r="9"/><circle cx="887" cy="635" r="7"/><circle cx="855" cy="710" r="11"/></g></svg>
